# xmcd CD database file
#
# Track frame offsets:
#	150
#	13922
#	38655
#	51803
#	74489
#	85906
#	103546
#	122725
#	138689
#	151145
#	176799
#	192787
#	205162
#	227709
#
# Disc length: 3200 seconds
#
# Revision: 0
# Processed by: cddbd v1.4PL0 Copyright (c) Steve Scherf et al.
# Submitted via: CDex 1.50
#
DISCID=c00c7e0e
DTITLE=Maryann Price - Lone Star State O' Grace
DYEAR=2002
DGENRE=Jazz
TTITLE0=Put a Little Lipstick On
TTITLE1=For the Love of You
TTITLE2=Hoppin' in Joplin
TTITLE3=Some Ole Rainy Day
TTITLE4=That Old Black Magic
TTITLE5=I Told You I Love You, Now Get Out
TTITLE6=Bad Boy
TTITLE7=I'm Beginning to See the Light
TTITLE8=What Makes Bob Holler
TTITLE9=Don't Let the Sun Catch You Cryin'
TTITLE10=Not For Me
TTITLE11=Guess Who's in Town
TTITLE12=We Follow the Seven Seas
TTITLE13=God Don't Like It
EXTD=YEAR: 2002
EXTT0=
EXTT1=
EXTT2=
EXTT3=
EXTT4=
EXTT5=
EXTT6=
EXTT7=
EXTT8=
EXTT9=
EXTT10=
EXTT11=
EXTT12=
EXTT13=
PLAYORDER=
